<svg xmlns="http://www.w3.org/2000/svg" viewBox="0 0 64 80">
  <g data-name="Company">
    <path d="M61.046,24.7a1,1,0,0,0-.707-.293H42.819V13.835a1,1,0,0,0-1-1H38.127V8.186a1,1,0,0,0-1-1H32.3V2.777a1,1,0,0,0-2,0V7.186H25.469a1,1,0,0,0-1,1v4.649H20.776a1,1,0,0,0-1,1V32.651L3.431,36.527a1,1,0,0,0-.77.973V61.223a1,1,0,0,0,1,1h0L60.3,62.164a1,1,0,0,0,1-1L61.339,25.4A1,1,0,0,0,61.046,24.7ZM26.469,9.186h9.658v3.649H26.469Zm14.35,5.649V60.184l-19.043.02V14.835ZM4.661,38.291l15.115-3.585v25.5l-15.115.016ZM50.105,60.164v-3.3H52.1v3.3Zm9.194,0-5.2.005v-4.3a1,1,0,0,0-1-1h-3.99a1,1,0,0,0-1,1v4.309l-5.286.005V26.4H59.338ZM25.527,20.119a1,1,0,0,1,1-1h9.541a1,1,0,0,1,0,2H26.527A1,1,0,0,1,25.527,20.119Zm0,5.284a1,1,0,0,1,1-1h9.541a1,1,0,0,1,0,2H26.527A1,1,0,0,1,25.527,25.4Zm0,5.284a1,1,0,0,1,1-1h9.541a1,1,0,0,1,0,2H26.527A1,1,0,0,1,25.527,30.687Zm0,5.284a1,1,0,0,1,1-1h9.541a1,1,0,0,1,0,2H26.527A1,1,0,0,1,25.527,35.971Zm0,5.284a1,1,0,0,1,1-1h9.541a1,1,0,0,1,0,2H26.527A1,1,0,0,1,25.527,41.255Zm0,5.284a1,1,0,0,1,1-1h9.541a1,1,0,0,1,0,2H26.527A1,1,0,0,1,25.527,46.539Zm0,5.283a1,1,0,0,1,1-1h9.541a1,1,0,0,1,0,2H26.527A1,1,0,0,1,25.527,51.822Zm0,5.284a1,1,0,0,1,1-1h9.541a1,1,0,0,1,0,2H26.527A1,1,0,0,1,25.527,57.106ZM13.374,41.275V42.51a1,1,0,0,1-2,0V41.275a1,1,0,0,1,2,0Zm4,0V42.51a1,1,0,0,1-2,0V41.275a1,1,0,1,1,2,0Zm-8,0V42.51a1,1,0,1,1-2,0V41.275a1,1,0,1,1,2,0Zm4,6.222v1.234a1,1,0,0,1-2,0V47.5a1,1,0,0,1,2,0Zm4,0v1.234a1,1,0,0,1-2,0V47.5a1,1,0,1,1,2,0Zm-8,0v1.234a1,1,0,1,1-2,0V47.5a1,1,0,0,1,2,0Zm4,6.222v1.234a1,1,0,0,1-2,0V53.719a1,1,0,0,1,2,0Zm4,0v1.234a1,1,0,0,1-2,0V53.719a1,1,0,0,1,2,0Zm-8,0v1.234a1,1,0,0,1-2,0V53.719a1,1,0,1,1,2,0ZM50.1,32.287V31.053a1,1,0,1,1,2,0v1.234a1,1,0,1,1-2,0Zm4,0V31.053a1,1,0,1,1,2,0v1.234a1,1,0,1,1-2,0Zm-8,0V31.053a1,1,0,1,1,2,0v1.234a1,1,0,1,1-2,0Zm4,6.223V37.275a1,1,0,0,1,2,0V38.51a1,1,0,0,1-2,0Zm4,0V37.275a1,1,0,0,1,2,0V38.51a1,1,0,0,1-2,0Zm-8,0V37.275a1,1,0,0,1,2,0V38.51a1,1,0,0,1-2,0Zm4,6.221V43.5a1,1,0,0,1,2,0v1.234a1,1,0,0,1-2,0Zm4,0V43.5a1,1,0,0,1,2,0v1.234a1,1,0,0,1-2,0Zm-8,0V43.5a1,1,0,0,1,2,0v1.234a1,1,0,0,1-2,0Zm4,6V49.5a1,1,0,0,1,2,0v1.234a1,1,0,0,1-2,0Zm4,0V49.5a1,1,0,0,1,2,0v1.234a1,1,0,0,1-2,0Zm-8,0V49.5a1,1,0,0,1,2,0v1.234a1,1,0,0,1-2,0Z"/>
  </g>
</svg>